<?xml version="1.0" encoding="utf-8"?>
<!-- Generator: Adobe Illustrator 19.0.0, SVG Export Plug-In . SVG Version: 6.00 Build 0)  -->
<svg version="1.1" id="Capa_1" xmlns="http://www.w3.org/2000/svg" xmlns:xlink="http://www.w3.org/1999/xlink" x="0px" y="0px"
	 viewBox="0 0 183 43.1" style="enable-background:new 0 0 183 43.1;" xml:space="preserve">
<style type="text/css">
	.st0{fill:#FFFFFF;}
</style>
<g id="XMLID_54_">
	<path id="XMLID_74_" class="st0" d="M21.7,19.2c1.2,1.9,1.8,4.4,1.8,7.7v11.8c0,0.8-0.3,1.5-0.8,2c-0.5,0.5-1.2,0.8-2,0.8
		c-0.8,0-1.5-0.3-2-0.8c-0.5-0.5-0.8-1.2-0.8-2V26.9c0-1.7-0.3-3-1-4c-0.7-1-1.8-1.4-3.5-1.4c-1.7,0-3.1,0.5-4,1.5
		c-1,1-1.5,2.3-1.5,3.9v11.8c0,0.8-0.3,1.5-0.8,2c-0.5,0.5-1.2,0.8-2,0.8c-0.8,0-1.5-0.3-2-0.8c-0.5-0.5-0.8-1.2-0.8-2V10.2
		c0-0.8,0.3-1.5,0.8-2c0.5-0.5,1.2-0.8,2-0.8c0.8,0,1.5,0.3,2,0.8C7.7,8.7,8,9.4,8,10.2v10.2c0.8-1.1,1.9-2,3.2-2.8
		c1.3-0.8,2.7-1.2,4.3-1.2C18.4,16.4,20.5,17.3,21.7,19.2"/>
	<path id="XMLID_71_" class="st0" d="M44.9,34.7c1.3-1.5,1.9-3.3,1.9-5.5c0-2.2-0.6-4.1-1.9-5.5c-1.3-1.5-2.9-2.2-4.9-2.2
		c-2,0-3.6,0.7-4.8,2.2c-1.3,1.5-1.9,3.3-1.9,5.5c0,2.2,0.6,4,1.9,5.5c1.2,1.5,2.9,2.2,4.9,2.2C42,36.9,43.7,36.1,44.9,34.7
		 M51.3,17.2c0.5,0.5,0.8,1.2,0.8,2v19.5c0,0.8-0.3,1.5-0.8,2c-0.5,0.5-1.2,0.8-2,0.8c-0.8,0-1.4-0.3-2-0.8c-0.5-0.5-0.8-1.2-0.8-2
		c-0.8,0.9-1.8,1.7-3.1,2.3c-1.3,0.6-2.7,0.9-4.1,0.9c-2.1,0-4-0.5-5.8-1.6c-1.7-1.1-3.1-2.6-4.1-4.5c-1-1.9-1.5-4.1-1.5-6.6
		c0-2.5,0.5-4.7,1.5-6.6c1-1.9,2.3-3.5,4-4.6c1.7-1.1,3.6-1.6,5.6-1.6c1.5,0,2.9,0.3,4.1,0.8c1.3,0.5,2.4,1.2,3.3,2v0
		c0-0.8,0.3-1.5,0.8-2c0.5-0.5,1.2-0.8,2-0.8C50.2,16.4,50.8,16.6,51.3,17.2"/>
	<path id="XMLID_68_" class="st0" d="M75,34.7c1.3-1.5,1.9-3.3,1.9-5.5c0-2.2-0.6-4-1.9-5.5c-1.2-1.5-2.9-2.2-4.9-2.2
		s-3.6,0.7-4.9,2.2c-1.3,1.5-1.9,3.3-1.9,5.5c0,2.2,0.6,4.1,1.9,5.5c1.3,1.5,2.9,2.2,4.9,2.2C72.1,36.9,73.7,36.1,75,34.7 M76.6,18
		c1.7,1.1,3.1,2.6,4.1,4.5c1,1.9,1.5,4.1,1.5,6.6c0,2.5-0.5,4.7-1.5,6.6c-1,1.9-2.3,3.5-4,4.6c-1.7,1.1-3.6,1.6-5.6,1.6
		c-1.5,0-2.9-0.3-4.2-0.9c-1.3-0.6-2.4-1.3-3.2-2.2v0.3c0,0.8-0.3,1.5-0.8,2c-0.5,0.5-1.2,0.8-2,0.8s-1.5-0.3-2-0.8s-0.8-1.2-0.8-2
		V10.2c0-0.8,0.3-1.5,0.8-2s1.2-0.8,2-0.8s1.5,0.3,2,0.8c0.5,0.5,0.8,1.2,0.8,2v9.6c0.7-0.9,1.8-1.7,3.1-2.4c1.3-0.7,2.7-1,4.1-1
		C73,16.4,74.9,16.9,76.6,18"/>
	<path id="XMLID_67_" class="st0" d="M91.2,40.7c-0.5,0.5-1.2,0.8-2,0.8c-0.8,0-1.5-0.3-2-0.8c-0.5-0.5-0.8-1.2-0.8-2v-19
		c0-0.8,0.3-1.5,0.8-2c0.5-0.5,1.2-0.8,2-0.8c0.8,0,1.5,0.3,2,0.8c0.5,0.5,0.8,1.2,0.8,2v19C92,39.5,91.7,40.1,91.2,40.7"/>
	<path id="XMLID_66_" class="st0" d="M110.7,36.9c0.4,0.4,0.5,1,0.5,1.6c0,0.8-0.5,1.5-1.4,2.1c-0.9,0.6-1.9,0.8-3.1,0.8
		c-1.9,0-3.5-0.4-4.8-1.2c-1.3-0.8-2-2.5-2-5.2V22.4h-2.1c-0.7,0-1.4-0.2-1.8-0.7c-0.5-0.5-0.7-1.1-0.7-1.8c0-0.7,0.2-1.3,0.7-1.8
		c0.5-0.5,1.1-0.7,1.8-0.7h2.1v-2.9c0-0.8,0.3-1.5,0.8-2c0.5-0.5,1.2-0.8,2-0.8c0.8,0,1.4,0.3,1.9,0.8c0.5,0.5,0.8,1.2,0.8,2v2.9
		h3.3c0.7,0,1.4,0.2,1.8,0.7c0.5,0.5,0.7,1.1,0.7,1.8c0,0.7-0.2,1.3-0.7,1.8c-0.5,0.5-1.1,0.7-1.8,0.7h-3.3v12.5
		c0,0.6,0.2,1.1,0.5,1.4c0.3,0.3,0.8,0.4,1.4,0.4c0.2,0,0.6-0.1,1-0.2c0.4-0.2,0.7-0.2,1.1-0.2C110,36.3,110.4,36.5,110.7,36.9"/>
	<path id="XMLID_63_" class="st0" d="M132,34.7c1.3-1.5,1.9-3.3,1.9-5.5c0-2.2-0.6-4.1-1.9-5.5c-1.3-1.5-2.9-2.2-4.9-2.2
		c-2,0-3.6,0.7-4.8,2.2c-1.3,1.5-1.9,3.3-1.9,5.5c0,2.2,0.6,4,1.9,5.5c1.2,1.5,2.9,2.2,4.9,2.2C129.1,36.9,130.7,36.1,132,34.7
		 M138.4,17.2c0.5,0.5,0.8,1.2,0.8,2v19.5c0,0.8-0.3,1.5-0.8,2c-0.5,0.5-1.2,0.8-2,0.8c-0.8,0-1.4-0.3-2-0.8c-0.5-0.5-0.8-1.2-0.8-2
		c-0.8,0.9-1.8,1.7-3.1,2.3c-1.3,0.6-2.7,0.9-4.1,0.9c-2.1,0-4-0.5-5.8-1.6c-1.7-1.1-3.1-2.6-4.1-4.5c-1-1.9-1.5-4.1-1.5-6.6
		c0-2.5,0.5-4.7,1.5-6.6c1-1.9,2.3-3.5,4-4.6c1.7-1.1,3.6-1.6,5.6-1.6c1.5,0,2.9,0.3,4.1,0.8c1.3,0.5,2.4,1.2,3.3,2v0
		c0-0.8,0.3-1.5,0.8-2c0.5-0.5,1.2-0.8,2-0.8C137.2,16.4,137.9,16.6,138.4,17.2"/>
	<path id="XMLID_62_" class="st0" d="M158.2,36.9c0.4,0.4,0.5,1,0.5,1.6c0,0.8-0.5,1.5-1.4,2.1c-0.9,0.6-1.9,0.8-3.1,0.8
		c-1.9,0-3.5-0.4-4.8-1.2c-1.3-0.8-2-2.5-2-5.2V22.4h-2.1c-0.7,0-1.4-0.2-1.8-0.7c-0.5-0.5-0.7-1.1-0.7-1.8c0-0.7,0.2-1.3,0.7-1.8
		c0.5-0.5,1.1-0.7,1.8-0.7h2.1v-2.9c0-0.8,0.3-1.5,0.8-2c0.5-0.5,1.2-0.8,2-0.8c0.8,0,1.4,0.3,1.9,0.8c0.5,0.5,0.8,1.2,0.8,2v2.9
		h3.3c0.7,0,1.3,0.2,1.8,0.7c0.5,0.5,0.7,1.1,0.7,1.8c0,0.7-0.2,1.3-0.7,1.8c-0.5,0.5-1.1,0.7-1.8,0.7h-3.3v12.5
		c0,0.6,0.2,1.1,0.5,1.4c0.3,0.3,0.8,0.4,1.4,0.4c0.2,0,0.6-0.1,1-0.2c0.4-0.2,0.7-0.2,1.1-0.2C157.5,36.3,157.9,36.5,158.2,36.9"/>
	<path id="XMLID_61_" class="st0" d="M39.2,13.7c0,0-0.4-12.3,12.7-12.7C51.9,1,51.3,13.4,39.2,13.7"/>
	<path id="XMLID_60_" class="st0" d="M92.2,12.5c0,1.6-1.3,2.9-2.9,2.9c-1.6,0-2.9-1.3-2.9-2.9s1.3-2.9,2.9-2.9
		C90.9,9.6,92.2,10.9,92.2,12.5"/>
	<g id="XMLID_55_">
		<path id="XMLID_57_" class="st0" d="M174.6,8.1c-4,0-7.3,3.3-7.3,7.3c0,1.9,0.7,3.8,2.1,5.2c1.4,1.4,3.2,2.2,5.1,2.2h0
			c4,0,7.3-3.3,7.3-7.3C181.9,11.4,178.7,8.1,174.6,8.1z M174.6,21.7L174.6,21.7c-1.7,0-3.3-0.7-4.5-1.9c-1.2-1.2-1.8-2.8-1.8-4.5
			c0-3.5,2.9-6.3,6.4-6.3c3.5,0,6.3,2.9,6.3,6.4C180.9,18.9,178,21.7,174.6,21.7z"/>
		<path id="XMLID_56_" class="st0" d="M177.6,14.1c0-1.3-1.1-2.5-2.4-2.5h-2.5c-0.3,0-0.5,0.2-0.5,0.5v6.7c0,0.3,0.2,0.5,0.5,0.5
			c0.3,0,0.5-0.2,0.5-0.5v-6.2h2.1c0.8,0,1.5,0.7,1.5,1.5s-0.7,1.5-1.5,1.5h-0.6c-0.2,0-0.4,0.1-0.4,0.3c-0.1,0.2,0,0.4,0.1,0.5
			l2.5,2.7c0.2,0.2,0.5,0.2,0.7,0c0.2-0.2,0.2-0.5,0-0.7l-1.8-1.9C176.8,16.3,177.6,15.3,177.6,14.1z"/>
	</g>
</g>
</svg>
